<svg width="500" height="263" viewBox="0 0 500 263" fill="none" xmlns="http://www.w3.org/2000/svg">
<path d="M12.673 0.107845C12.673 0.196785 12.5495 0.38356 12.3974 0.525864C12.0743 0.828261 11.6846 0.863837 11.2189 0.641486C11.0003 0.534758 10.9148 0.525864 10.8863 0.597016C10.7722 0.908307 10.4111 1.16623 10.0785 1.17513C9.88837 1.18402 9.72681 1.2196 9.72681 1.27296C9.73631 1.44195 11.2284 7.10744 11.2759 7.15191C11.3045 7.17859 11.9222 7.07186 12.6445 6.92067C14.1081 6.60048 15.6287 6.07573 15.5717 5.91564C15.5527 5.85338 15.2486 4.70605 14.9064 3.36306C14.0226 -0.0967178 14.1461 0.241255 13.823 0.347984C13.5379 0.445818 13.1292 0.33909 12.8441 0.0989509C12.6825 -0.0344594 12.673 -0.0344594 12.673 0.107845Z" fill="#2D3F55"/>
<path d="M404.576 14.6586C403.863 16.1706 403.284 17.4424 403.284 17.4869C403.284 17.5225 403.816 17.7626 404.462 18.0294C405.783 18.5542 405.897 18.5631 406.591 18.0739C407.142 17.6737 407.361 17.0866 407.456 15.7525C407.494 15.1122 407.589 14.4896 407.665 14.3473C407.855 13.9737 408.378 13.6713 408.691 13.7425C409.043 13.8225 409.357 14.0271 409.499 14.2761C409.613 14.4896 409.642 14.454 410.069 13.529C410.326 13.0043 410.545 12.524 410.573 12.4706C410.602 12.3906 409.651 11.937 409.604 12.0082C409.604 12.0259 409.547 12.1416 409.48 12.2839C409.423 12.4173 409.233 12.6041 409.062 12.7108C408.501 13.0399 407.674 12.773 407.522 12.2127C407.465 12.0171 407.446 12.0082 407.199 12.1327C406.838 12.3106 406.391 12.2839 406.116 12.0793L405.878 11.9103L404.576 14.6586Z" fill="#2D3F55"/>
<path d="M8.43429 14.8898C8.15867 15.7525 7.38886 18.6342 6.91366 20.6175C5.90625 24.7977 5.12693 29.8317 4.78479 34.2699L4.68024 35.604L4.01497 36.689C2.6369 38.9392 1.1733 42.0788 0.317952 44.6047C-0.138236 45.9566 -0.195259 45.5564 0.764635 48.0556C3.1121 54.148 6.78061 61.4678 10.183 66.822C11.3995 68.7342 13.2908 71.4558 14.3837 72.8699C18.2043 77.7972 22.5761 81.9418 26.7198 84.5656C27.5181 85.0725 27.5942 85.1437 27.5561 85.3571C27.4896 85.6417 26.8053 91.0226 26.2256 95.7275C24.3438 110.945 22.3575 130.583 21.7017 140.376C20.8939 152.48 20.2952 168.623 19.896 189.382C19.801 193.953 19.5158 213.36 19.5158 214.827V215.459L19.877 215.566C20.0671 215.619 21.0365 215.895 22.0344 216.161C23.0228 216.428 23.8401 216.66 23.8496 216.668C23.8591 216.677 23.9161 218.607 23.9732 220.955C24.1823 228.978 24.4104 235.337 24.7525 242.968C24.857 245.343 24.9236 247.557 24.895 247.904C24.8665 248.242 24.838 249.025 24.8285 249.639L24.819 250.741L25.0851 250.813C25.6078 250.946 28.7917 251.417 30.0652 251.551C31.9374 251.755 35.1878 251.818 36.7179 251.693C38.2575 251.56 39.7972 251.266 40.9186 250.884L41.736 250.608L41.888 249.834C42.4393 247.042 44.7962 232.011 46.1553 222.69L46.564 219.888L46.9821 219.906C49.7953 220.057 52.7605 220.11 56.5811 220.102L61.1905 220.093L61.2095 220.342C61.2285 220.484 61.6847 227.101 62.2359 235.052C62.7776 243.004 63.2528 249.754 63.2908 250.057L63.3383 250.599L64.4028 250.875C69.5729 252.2 74.4864 252.351 77.6797 251.284C78.6872 250.946 79.6756 250.439 79.7706 250.226C79.8086 250.119 79.9132 249.274 80.0082 248.349C80.1793 246.579 80.6355 242.719 81.5763 234.857C82.1181 230.321 83.0589 221.747 83.2965 219.159C83.3916 218.136 83.4391 217.878 83.5627 217.851C83.6482 217.825 83.9903 217.762 84.3325 217.709C85.9386 217.451 90.2819 216.615 90.3579 216.544C90.453 216.464 90.415 215.183 89.9873 204.146C88.5427 166.729 87.4117 143.737 86.4233 131.659C85.4539 119.955 83.8288 106.89 81.7569 94.26C81.3007 91.4851 80.2933 85.704 80.1983 85.3038C80.1603 85.1348 80.2363 85.0903 80.9396 84.8768C84.1614 83.8807 88.7423 81.9151 92.3633 79.9673C101.715 74.9333 109.689 68.076 115.296 60.2226C115.724 59.6267 116.076 59.1109 116.076 59.0753C116.076 59.0397 115.515 58.515 114.821 57.8924C114.137 57.2787 113.11 56.2826 112.55 55.6867L111.533 54.5927L112.103 53.4187C114.498 48.4736 116.836 42.15 118.109 37.1515C118.461 35.773 119.117 32.8024 119.117 32.58C119.117 32.4822 119.003 32.4466 118.623 32.4466C116.342 32.4466 113.585 31.486 112.074 30.1608L111.637 29.7784L110.896 30.9969C108.995 34.1453 107.208 36.7602 105.374 39.1171C103.606 41.3851 99.054 45.4852 94.5016 48.9094C87.5733 54.1213 80.8826 57.8746 73.9257 60.4361L73.46 60.6051L66.8833 75.8939C63.2623 84.3076 60.2686 91.1916 60.2211 91.2094C60.0025 91.2628 54.9749 85.117 52.5229 81.8084C46.6685 73.8838 42.2587 65.9948 40.2248 59.8046C39.8067 58.5416 39.1889 56.327 39.1889 56.1047C39.1889 56.0246 38.9703 55.8112 38.7042 55.6244C37.2311 54.6016 34.2089 51.8445 32.6692 50.1368C30.3788 47.5931 28.6396 45.1473 27.4041 42.737C27.1 42.1411 26.8529 41.643 26.8719 41.6341C26.8814 41.6252 28.497 42.1589 30.4738 42.8259C33.0589 43.6975 34.0568 44.0711 34.0568 44.1689C34.0568 44.249 33.8002 45.1561 33.4866 46.1967C32.9068 48.109 32.8118 48.5892 33.0304 48.3847C33.0969 48.3224 33.2015 48.1179 33.268 47.94L33.382 47.6109L33.325 47.9667C33.2395 48.4914 33.2395 48.6248 33.344 48.6515C33.3915 48.6693 33.4866 48.5003 33.5436 48.2779L33.6672 47.8777L33.6101 48.358C33.5341 49.0339 33.7812 48.9361 33.9333 48.2246L34.0473 47.6998L33.9903 48.358C33.9523 48.8827 33.9618 49.0073 34.0663 48.9717C34.1519 48.945 34.2374 48.6515 34.3134 48.0912L34.418 47.2551L34.4085 48.1356C34.399 48.7404 34.4275 49.0339 34.5035 49.0517C34.57 49.0784 34.627 48.8116 34.6746 48.2157C34.7601 47.0061 34.7981 46.9972 34.8076 48.1712C34.8171 48.9361 34.8456 49.1762 34.9407 49.1407C35.0262 49.114 35.0547 48.8027 35.0452 47.9578C35.0262 46.766 35.0927 46.9438 35.2448 48.4825C35.3208 49.2563 35.5394 49.2652 35.5109 48.4914C35.4919 47.9222 35.5299 47.9844 35.625 48.6604C35.7105 49.2385 35.9196 49.1762 35.8911 48.5803C35.8816 48.2157 35.8911 48.189 35.9386 48.4469C36.0051 48.776 36.2427 48.9361 36.2427 48.6604C36.2427 48.5715 36.1762 48.189 36.1002 47.8066C35.8911 46.7838 35.9386 46.7749 36.2332 47.7799C36.4613 48.5981 36.7179 48.9984 36.7179 48.5537C36.7179 48.4291 36.7654 48.3847 36.8605 48.4203C36.946 48.4558 37.003 48.4203 37.003 48.3491C37.003 48.2779 36.7274 47.4063 36.3948 46.4191C35.9196 45.0138 35.8245 44.6403 35.9481 44.6759C36.0336 44.7026 37.3167 45.1384 38.8088 45.6453L41.5174 46.5614L41.755 46.1256C42.4107 44.9338 43.5607 44.4802 44.8913 44.8982L45.4995 45.0939L45.7941 44.7648C47.4098 42.9237 48.3127 40.4334 48.3127 37.8631V37.0893L49.1965 36.689C50.8502 35.933 52.3423 35.5417 54.1956 35.3816C55.3741 35.2749 57.1038 35.3727 58.0162 35.5951L58.5009 35.7196L58.8335 35.3727C59.2041 34.9903 59.5558 34.7679 60.2116 34.5011L60.6582 34.3232L61.1239 34.8747C61.3805 35.1771 61.9128 35.8708 62.3119 36.4044C63.1578 37.5695 64.8685 39.4551 64.9255 39.295C64.9825 39.1438 64.7734 37.9787 64.5548 37.1782L64.3743 36.5289L68.1378 32.3932C70.2097 30.1164 71.8824 28.2397 71.8633 28.2219C71.8253 28.1864 46.8111 19.7281 46.7445 19.7281C46.7255 19.7281 44.6442 21.9961 42.1161 24.7711C39.5976 27.5549 36.7844 30.6411 35.8626 31.6461C34.9502 32.6512 32.5552 35.2838 30.5499 37.4984C28.535 39.713 26.8624 41.5185 26.8338 41.5185C26.8053 41.5185 26.6153 41.0916 26.4062 40.5579C24.4959 35.6129 21.4261 29.4849 18.803 25.3936L18.0142 24.1752L17.7671 22.592C17.4155 20.324 17.1589 17.7981 17.0828 15.8681L17.0163 14.1961L16.7217 14.2405C16.5601 14.2672 15.9139 14.3739 15.2866 14.4807C13.0152 14.8542 10.7057 14.792 9.21361 14.3206L8.68139 14.1516L8.43429 14.8898ZM35.9291 46.7838C35.9006 46.8549 35.8721 46.8282 35.8721 46.7304C35.8626 46.6326 35.8911 46.5792 35.9196 46.6148C35.9481 46.6414 35.9576 46.7215 35.9291 46.7838ZM33.4581 47.4953C33.4296 47.5664 33.401 47.5397 33.401 47.4419C33.3915 47.3441 33.4201 47.2907 33.4486 47.3263C33.4771 47.353 33.4866 47.433 33.4581 47.4953ZM33.7432 47.6732C33.7147 47.7443 33.6862 47.7176 33.6862 47.6198C33.6767 47.522 33.7052 47.4686 33.7337 47.5042C33.7622 47.5309 33.7717 47.6109 33.7432 47.6732ZM35.834 48.0289C35.8055 48.0912 35.7865 48.0467 35.7865 47.9222C35.7865 47.7977 35.8055 47.7532 35.834 47.8066C35.8531 47.8688 35.8531 47.9756 35.834 48.0289Z" fill="#2D3F55"/>
<path d="M397.087 20.4574C394.283 22.3963 390.064 26.0873 387.83 28.5331C382.337 34.5722 379.001 41.2694 378.06 48.1711C377.918 49.1673 377.918 49.1851 377.357 49.9944C376.216 51.6487 375.266 53.5698 374.724 55.3664L374.477 56.1758L374.677 56.8339C375.266 58.675 376.625 61.6812 377.956 64.0825C381.966 71.3134 387.64 77.1745 394.226 80.9011C396.327 82.0929 399.016 83.3025 401.003 83.9518C401.345 84.0585 401.649 84.1741 401.696 84.2097C401.734 84.2364 401.601 84.69 401.392 85.2147C401.183 85.7306 400.632 87.2515 400.157 88.5856C396.773 98.2089 394.245 108.313 393.124 116.762C390.862 133.705 388.647 175.667 388.866 197.164C388.923 202.447 389.056 206.227 389.208 206.814C389.275 207.081 389.284 207.081 391.119 207.516C392.135 207.748 392.981 207.952 393 207.97C393.029 207.988 393.057 208.335 393.447 212.862C394.027 219.648 394.778 226.754 395.832 235.497C396.688 242.657 397.134 246.481 397.344 248.616C397.439 249.496 397.553 250.27 397.61 250.332C397.79 250.546 399.111 251.115 400.052 251.4C401.421 251.809 402.761 251.969 404.804 251.969C407.503 251.969 409.936 251.64 412.958 250.857C413.956 250.599 414.023 250.572 414.023 250.359C414.032 249.612 416.76 211.207 416.808 211.163C416.836 211.136 417.558 211.154 418.414 211.207C421.027 211.376 423.536 211.474 426.644 211.537C428.859 211.581 429.609 211.625 429.609 211.706C429.609 211.866 431.025 221.711 431.757 226.647C432.575 232.18 433.791 240.06 434.266 242.924C434.475 244.195 434.741 245.779 434.846 246.437C435.027 247.593 435.454 250.021 435.549 250.403C435.654 250.848 438.039 251.462 440.548 251.693C441.983 251.818 445.319 251.755 447.268 251.551C448.408 251.435 451.136 251.035 452.191 250.839L452.476 250.777V247.744C452.466 246.072 452.542 243.164 452.637 241.278C452.989 233.914 453.274 224.78 453.521 213.244L453.578 210.238L453.882 210.194C454.044 210.176 455.118 210.033 456.268 209.882C457.418 209.731 459.176 209.473 460.164 209.322L461.97 209.037L461.942 207.881C461.932 207.241 461.875 205.8 461.818 204.679C461.771 203.55 461.618 200.108 461.485 197.03C460.621 176.378 459.537 157.834 458.539 146.557C457.921 139.539 456.467 125.469 454.899 111.336C454.7 109.504 454.538 107.992 454.557 107.975C454.567 107.966 454.89 108.117 455.279 108.321C456.382 108.908 459.062 110.109 460.735 110.758C466.865 113.142 473.841 114.832 481.881 115.864C484.761 116.237 486.234 116.353 486.395 116.228C486.69 116.006 487.65 114.521 488.172 113.489L488.743 112.386L489.037 112.439C489.208 112.466 490.472 112.635 491.86 112.804C493.247 112.982 494.768 113.204 495.234 113.302C495.709 113.4 496.517 113.498 497.04 113.524L497.99 113.578L498.399 113.097C498.902 112.51 499.606 111.203 499.796 110.492C500.09 109.389 500.062 107.601 499.739 106.712C499.615 106.383 499.368 106.258 496.517 105.075C494.825 104.364 491.052 102.594 490.187 102.096C489.931 101.953 489.883 101.855 489.826 101.455C489.712 100.664 489.693 100.628 489.218 100.45C488.106 100.023 484.998 98.538 483.563 97.7375C478.393 94.8381 473.917 91.4939 470.315 87.8118C466.361 83.7828 463.263 81.1146 459.518 78.5086C456.848 76.6409 454.072 74.9777 451.611 73.7503C451.041 73.4657 450.252 72.9855 449.862 72.6742C448.342 71.4646 446.488 70.4418 444.435 69.6769C443.314 69.2678 441.29 68.6896 440.767 68.6274L440.472 68.6007L438.476 72.2917C435.996 76.8899 433.62 80.9901 430.094 86.789L429.039 88.5233V87.9452C429.039 86.6911 429.419 78.8288 429.657 75.1289L429.799 73.0299L429.419 71.7581C429.21 71.0644 429.02 70.4685 429.001 70.4507C428.916 70.3706 428.013 70.9932 427.423 71.5268C427.024 71.8915 426.72 72.2739 426.473 72.7275C425.542 74.4708 423.631 78.8377 422.472 81.8528C422.073 82.8845 421.949 83.1246 421.93 82.9201C421.873 82.4576 422.101 76.7476 422.244 74.9599C422.5 71.7759 422.919 68.7964 423.441 66.2527C423.603 65.5056 423.717 64.883 423.698 64.8652C423.679 64.8563 423.346 64.6962 422.957 64.5095C421.503 63.8246 419.184 63.1665 416.541 62.6951L415.201 62.446L413.443 61.4677C410.155 59.6177 407.351 58.1591 403.873 56.4782C401.506 55.3308 400.641 54.7705 399.501 53.6676C398.227 52.4403 397.543 51.3908 396.925 49.7632C396.089 47.5397 395.889 44.8537 396.308 41.2694C396.384 40.6112 396.441 40.042 396.441 39.9975C396.441 39.9442 396.241 39.9353 395.966 39.9709C395.614 40.0153 395.49 39.9975 395.49 39.9175C395.49 39.6862 396.564 36.849 397.153 35.5061C398.275 32.9801 401.107 27.7683 402.143 26.3096C402.599 25.6782 403.379 24.4063 403.379 24.2996C403.379 24.2551 403.046 24.1128 402.637 23.9794C400.765 23.3568 399.045 22.0672 398.399 20.7953C398.208 20.4307 398.056 20.0838 398.056 20.0216C398.056 19.8259 397.904 19.8881 397.087 20.4574Z" fill="#2D3F55"/>
<path d="M431.007 28.3997C424.164 30.7122 418.547 32.6244 418.528 32.6511C418.452 32.7222 427.253 42.3278 427.367 42.2922C427.424 42.2744 428.003 41.6429 428.659 40.8781C429.315 40.1221 429.99 39.3394 430.151 39.1526L430.465 38.8146L431.083 39.3839C431.425 39.704 431.843 40.1399 432.004 40.3622L432.299 40.7624L433.544 40.7802C435.644 40.798 438.087 41.2872 438.999 41.8653C439.769 42.3545 440.805 42.8258 441.508 43.0037C442.164 43.1638 442.848 43.564 443.808 44.32L444.426 44.8092L444.179 45.3606C443.514 46.9082 443.514 48.856 444.198 50.7682C444.341 51.1595 444.455 51.4797 444.464 51.4797C444.474 51.4797 444.711 51.3997 444.987 51.3018C445.719 51.0439 446.641 51.0617 447.249 51.3463C447.515 51.4708 447.828 51.6665 447.952 51.791L448.18 52.0134L448.38 51.5509L448.579 51.0795L452.571 49.7365L456.553 48.3846L456.582 49.692L456.601 50.9906L455.603 53.9701C455.051 55.6066 454.605 57.0118 454.605 57.1007C454.605 57.2875 454.757 57.3142 454.823 57.1452C454.852 57.0919 454.88 57.1541 454.88 57.3053C454.899 57.7589 455.108 57.412 455.384 56.4782C455.65 55.6066 455.66 55.7133 455.422 56.8784C455.356 57.2342 455.318 57.5454 455.346 57.5721C455.47 57.6878 455.546 57.5899 455.641 57.2342L455.736 56.8606L455.717 57.3231C455.698 57.8301 455.85 57.999 455.945 57.5721C456.011 57.3053 456.011 57.3053 456.021 57.5454C456.03 57.8123 456.192 57.9635 456.268 57.7767C456.296 57.7144 456.354 57.2786 456.401 56.8161L456.477 55.9712L456.496 56.9762C456.506 57.7411 456.534 57.9813 456.629 57.9546C456.705 57.9279 456.762 57.6077 456.8 56.9407C456.848 56.0601 456.848 56.0335 456.867 56.6472C456.905 58.0435 457.161 58.3815 457.18 57.0563L457.199 56.238L457.275 56.9051C457.37 57.6878 457.418 57.8301 457.551 57.75C457.618 57.7144 457.637 57.4743 457.608 57.1452L457.551 56.5938L457.675 57.0652C457.808 57.6255 457.988 57.6789 457.96 57.1452L457.941 56.7717L458.045 57.1096C458.093 57.2964 458.188 57.4298 458.254 57.412C458.368 57.3765 458.368 57.3231 458.273 56.7717L458.216 56.4159L458.34 56.7628C458.454 57.1007 458.691 57.3053 458.691 57.0652C458.691 57.0029 458.292 55.651 457.817 54.059L456.933 51.1684V49.7098V48.2601L460.231 47.1483L463.538 46.0277L463.367 45.8231C462.579 44.8448 443.685 24.184 443.58 24.184C443.504 24.1929 437.84 26.0873 431.007 28.3997ZM455.717 55.4998C455.688 55.571 455.66 55.5443 455.66 55.4465C455.65 55.3486 455.679 55.2953 455.707 55.3308C455.736 55.3575 455.745 55.4376 455.717 55.4998ZM457.522 56.3892C457.494 56.4604 457.465 56.4337 457.465 56.3359C457.456 56.238 457.484 56.1847 457.513 56.2202C457.541 56.2469 457.551 56.327 457.522 56.3892ZM457.903 56.5671C457.874 56.6383 457.846 56.6116 457.846 56.5137C457.836 56.4159 457.865 56.3625 457.893 56.3981C457.922 56.4248 457.931 56.5048 457.903 56.5671ZM455.812 56.656C455.783 56.7272 455.755 56.7005 455.755 56.6027C455.745 56.5048 455.774 56.4515 455.802 56.4871C455.831 56.5137 455.84 56.5938 455.812 56.656ZM456.097 57.1007C456.078 57.2164 456.059 57.1452 456.059 56.9495C456.049 56.7539 456.068 56.6649 456.097 56.745C456.116 56.8339 456.116 56.994 456.097 57.1007Z" fill="#2D3F55"/>
<path d="M303.179 26.194C303.15 26.2385 303.103 26.9767 303.065 27.8483C302.998 29.4314 302.998 29.4403 303.188 29.3425C303.54 29.1646 304.006 29.2269 304.262 29.4759C304.471 29.6894 304.49 29.7872 304.547 30.9168C304.604 32.2864 304.69 32.5266 305.27 32.9713C305.65 33.2648 306.344 33.5494 306.942 33.6472L307.294 33.7095V33.2826C307.294 33.0424 307.361 31.8239 307.437 30.5788C307.627 27.4926 307.636 27.7327 307.294 27.7327C307.104 27.7327 306.914 27.6438 306.705 27.4392L306.401 27.1546L306.144 27.3947C305.488 28.0173 304.338 27.3858 304.471 26.4697L304.519 26.1318H303.873C303.511 26.1318 303.198 26.1584 303.179 26.194Z" fill="#2D3F55"/>
<path d="M314.232 36.36C313.329 37.6674 311.362 38.8503 309.328 39.2772C308.938 39.3573 308.625 39.464 308.625 39.5084C308.625 39.7308 309.052 40.389 309.394 40.6647C309.832 41.0471 310.079 41.0649 311.067 40.807C312.901 40.3356 314.489 39.2861 315.524 37.8719C315.943 37.2938 315.962 37.2405 315.848 36.9825C315.715 36.689 315.239 36.2621 314.812 36.0487L314.536 35.9153L314.232 36.36Z" fill="#2D3F55"/>
<path d="M60.9055 37.6229C60.5633 37.7919 60.2877 38.0765 60.2877 38.2455C60.2877 38.5123 60.5443 38.5301 60.858 38.2811C61.2571 37.9698 61.6848 37.9164 62.3311 38.0943C62.9393 38.2544 63.1389 38.2277 63.1389 37.9698C63.1389 37.7208 62.5021 37.5162 61.7323 37.5162C61.3807 37.5162 61.01 37.5696 60.9055 37.6229Z" fill="#2D3F55"/>
<path d="M272.462 43.5374C267.083 46.5347 262.616 49.025 262.55 49.0695C262.474 49.114 263.899 50.0478 266.665 51.7733C269.535 53.561 270.875 54.4593 270.837 54.5304C270.666 54.7973 269.25 56.3982 268.461 57.2164C265.591 60.1959 262.36 62.5173 256.116 66.1105C251.848 68.5652 250.451 69.4635 248.703 70.8776C245.519 73.448 243.618 76.5965 242.848 80.5632C242.649 81.586 242.677 84.2187 242.896 85.3215C244.293 92.2945 250.489 98.2979 258.986 100.913C259.623 101.108 260.383 101.322 260.677 101.384C260.972 101.446 261.229 101.526 261.257 101.562C261.343 101.687 258.206 109.682 256.448 113.827C253.188 121.494 249.824 127.906 246.783 132.238C246.175 133.091 245.557 133.945 245.405 134.123L245.129 134.452L245.462 135.057C247.144 138.179 250.945 140.678 255.412 141.612C256.743 141.888 258.511 142.11 259.404 142.11H260.079L260.478 141.683C260.706 141.452 261.476 140.625 262.198 139.842C263.994 137.885 263.823 138.019 263.785 138.579C263.643 141.247 263.301 144.413 262.768 148.158C260.649 162.975 259.432 183.983 259.233 209.295L259.176 217.282L261.305 217.229C262.474 217.202 264.479 217.149 265.762 217.122L268.1 217.069L268.699 219.15C271.712 229.574 275.808 239.677 280.864 249.141C282.232 251.693 281.928 251.426 283.705 251.604C287.498 251.969 291.698 250.964 295.633 248.749C295.832 248.642 295.975 248.5 295.956 248.447C295.937 248.393 295.671 247.504 295.367 246.481C295.072 245.45 294.682 244.151 294.492 243.591C292.563 237.623 290.89 226.479 290.32 215.655L290.254 214.436L291.195 214.24C298.807 212.648 306.059 210.3 312.512 207.33L314.346 206.485L314.793 206.716C315.667 207.187 318.224 208.37 319.184 208.753C325.19 211.154 332.869 212.782 343.742 213.965C347.838 214.409 357.389 215.254 359.119 215.325C359.86 215.352 359.756 215.486 360.174 213.929C360.849 211.394 361.466 206.912 361.466 204.546V203.772L360.259 203.532C357.988 203.078 356.952 202.838 355.384 202.394C348.265 200.375 341.964 197.609 337.041 194.336C335.73 193.464 333.81 192.014 333.81 191.908C333.81 191.854 333.991 191.587 334.219 191.312C334.703 190.716 335.492 189.631 335.948 188.919L336.272 188.412L335.73 187.879C331.662 183.805 328.621 177.143 326.635 167.947C325.912 164.585 325.409 161.036 324.971 156.251C323.527 140.367 321.16 128.538 316.256 112.671C315.705 110.883 315.239 109.344 315.211 109.246C314.565 106.907 312.806 102.327 311.656 99.9789C311.457 99.5609 311.286 99.1695 311.286 99.1162C311.286 99.0539 311.723 98.8582 312.255 98.6715C321.208 95.5675 329.058 89.8575 334.722 82.3243C336.281 80.2519 338.296 76.9345 338.99 75.3069L339.237 74.711L338.581 73.4836C337.517 71.5002 336.652 70.1839 335.236 68.4229C332.565 65.0965 329.305 62.375 325.409 60.2404C323.213 59.0308 319.887 57.7234 317.977 57.3054L317.473 57.1986L317.539 57.6078C317.577 57.8301 317.606 58.6928 317.596 59.5289C317.596 60.8808 317.568 61.1298 317.34 61.9125C316.399 65.141 314.146 68.1294 310.716 70.6909C308.321 72.4786 306.562 73.3502 303.426 74.293C302.219 74.6576 301.193 74.96 301.145 74.96C301.098 74.96 301.012 74.5064 300.946 73.955C300.698 71.7759 300.195 69.5435 299.596 68.0138C299.178 66.9554 298.313 65.3011 297.325 63.6735C296.859 62.9086 296.384 62.0726 296.279 61.8235L296.08 61.3521L296.298 61.2276C296.925 60.863 302.191 58.0614 302.257 58.0614C302.419 58.0614 302.723 59.6 302.675 60.1515C302.552 61.6634 302.257 65.6035 302.257 65.8258C302.257 66.1816 302.476 66.0927 302.561 65.7013C302.618 65.4256 302.618 65.4345 302.609 65.7903C302.599 66.0393 302.637 66.1994 302.713 66.2172C302.789 66.2439 302.827 66.1282 302.827 65.7814C302.827 65.5234 302.865 65.0876 302.903 64.8208C302.96 64.3672 302.97 64.4117 303.017 65.31C303.065 66.3595 303.217 66.6085 303.312 65.7992L303.369 65.31L303.379 65.728C303.407 66.4929 303.673 66.7241 303.692 65.9948L303.711 65.5768L303.768 65.9504C303.806 66.1638 303.863 66.3595 303.901 66.3862C304.063 66.5374 304.091 66.2705 303.977 65.5234C303.92 65.0699 303.882 64.6963 303.901 64.6785C303.92 64.6607 304.015 64.9898 304.11 65.4167C304.3 66.3239 304.605 66.7775 304.5 66.0215C304.471 65.7725 304.424 65.4523 304.395 65.31C304.367 65.1588 304.433 65.2744 304.529 65.559C304.738 66.146 304.766 66.1994 304.909 66.1193C304.966 66.0838 304.956 65.9059 304.861 65.6124C304.671 65.0165 304.757 64.9453 304.966 65.5234C305.051 65.7725 305.156 65.9948 305.203 66.0215C305.393 66.1282 305.393 65.8525 305.203 65.39C305.099 65.1143 305.023 64.8653 305.042 64.8475C305.07 64.8297 305.165 65.0165 305.26 65.2655C305.355 65.5057 305.488 65.7102 305.555 65.7102C305.716 65.7102 305.707 65.6035 305.536 65.2033C305.336 64.7586 305.422 64.7319 305.631 65.1766C305.726 65.3722 305.831 65.5323 305.869 65.5323C306.04 65.5323 306.03 65.3811 305.821 64.9898C305.517 64.4295 305.517 64.3139 305.831 64.7941C306.059 65.1588 306.249 65.2833 306.249 65.0787C306.249 65.0165 305.517 63.7446 304.624 62.2327C303.226 59.8757 302.97 59.3866 302.78 58.6928C302.618 58.1058 302.59 57.8657 302.675 57.8123C302.732 57.7679 304.072 57.0385 305.659 56.1936C307.237 55.3487 308.53 54.6283 308.53 54.5838C308.53 54.5126 282.422 38.0409 282.318 38.0587C282.28 38.0676 277.851 40.5312 272.462 43.5374ZM275.637 54.1836C275.874 54.3526 276.169 54.5838 276.292 54.7083L276.511 54.9218L277.243 54.7617C277.642 54.6727 278.193 54.5749 278.459 54.5482L278.934 54.486L279.153 55.2686C280.17 58.9419 282.641 62.0726 286.224 64.2338C287.089 64.7586 288.733 65.5501 289.702 65.9237L290.292 66.146L290.377 65.9237C290.434 65.7992 290.472 65.6569 290.472 65.6124C290.472 65.4256 290.976 64.6163 291.299 64.2783C291.879 63.6735 292.383 63.46 293.285 63.4156C293.97 63.38 294.131 63.4067 294.578 63.5934C295.861 64.1449 296.498 65.3811 296.27 66.8842C296.08 68.0938 295.576 69.0277 294.816 69.5524C294.236 69.9438 294.036 70.006 293.095 70.0594L292.259 70.1128L292.031 70.682C291.261 72.5942 290.178 74.1773 288.695 75.5648C287.754 76.4453 287.621 76.6054 287.621 76.8633C287.621 77.1479 287.935 79.2469 288.058 79.7895L288.115 80.0296L288.809 79.4248C289.607 78.7311 290.586 78.2063 291.755 77.8683C292.639 77.6104 293.599 77.4148 293.675 77.477C293.694 77.5037 293.609 77.6905 293.466 77.895C292.782 78.9089 292.249 80.6878 291.28 85.2593C290.605 88.4256 289.911 91.1738 289.417 92.6146C288.153 96.3412 285.625 100.406 282.223 104.195C281.824 104.648 281.453 105.013 281.396 105.013C281.348 105.022 281.016 104.817 280.674 104.577C278.611 103.127 276.625 99.4897 274.971 94.1444C274.268 91.8586 273.46 88.5323 272.985 85.9174L272.814 84.9658L273.08 84.61C273.631 83.8807 274.515 83.267 275.694 82.8312C276.444 82.5555 277.87 82.2531 278.478 82.2531C278.953 82.2531 278.944 82.3598 278.697 80.7411C278.592 80.083 278.488 79.2736 278.45 78.9534L278.393 78.3753L277.804 78.2597C275.142 77.7527 272.263 76.223 270.352 74.3018C268.148 72.0783 267.036 69.3212 267.359 66.8931C267.606 65.0965 268.328 63.7357 269.887 62.1704C270.799 61.2454 271.769 60.0003 272.025 59.4133C272.139 59.1553 272.168 59.1375 272.272 59.2709C272.377 59.4133 272.443 59.4133 273.194 59.2709C273.641 59.1909 274.287 59.102 274.639 59.0664C275.285 59.013 275.523 58.8796 275.418 58.6306C275.371 58.5061 275.256 58.4883 274.62 58.5416C274.221 58.5772 273.536 58.675 273.109 58.764C272.671 58.8529 272.32 58.9152 272.32 58.9152C272.32 58.8707 273.964 55.5977 274.221 55.1352C274.61 54.4059 274.981 53.8812 275.095 53.8812C275.152 53.8812 275.39 54.0146 275.637 54.1836ZM303.844 64.4828C303.816 64.5451 303.797 64.5006 303.797 64.3761C303.797 64.2516 303.816 64.2071 303.844 64.2605C303.863 64.3228 303.863 64.4295 303.844 64.4828ZM304.319 64.9275C304.291 64.9987 304.262 64.972 304.262 64.8742C304.253 64.7763 304.281 64.723 304.31 64.7586C304.338 64.7852 304.348 64.8653 304.319 64.9275ZM303.654 65.3722C303.626 65.4434 303.597 65.4167 303.597 65.3189C303.588 65.221 303.616 65.1677 303.645 65.2033C303.673 65.2299 303.683 65.31 303.654 65.3722Z" fill="#2D3F55"/>
<path d="M277.699 58.9152C277.623 59.1108 277.68 59.1731 278.155 59.3955C278.725 59.6445 279.372 60.1959 279.742 60.7384C280.056 61.1831 280.351 61.3077 280.465 61.032C280.607 60.6762 279.638 59.5822 278.744 59.0842C278.127 58.7462 277.794 58.6928 277.699 58.9152Z" fill="#2D3F55"/>
<path d="M272.386 61.1564C272.025 61.53 272.31 62.0636 272.861 62.0636C273.384 62.0636 273.669 61.4677 273.289 61.1475C273.052 60.9518 272.576 60.9607 272.386 61.1564Z" fill="#2D3F55"/>
<path d="M277.756 62.0281C277.357 62.286 277.613 63.042 278.108 63.042C278.374 63.042 278.782 62.6951 278.782 62.4728C278.782 61.9658 278.222 61.7168 277.756 62.0281Z" fill="#2D3F55"/>
<path d="M274.943 62.3037C274.905 62.3482 274.724 62.6595 274.553 63.0064C274.154 63.8335 273.565 64.634 273.128 64.9631C272.377 65.5323 272.225 65.6924 272.225 65.9592C272.225 66.4928 273.204 66.9553 274.316 66.9553C274.838 66.9553 275.076 66.8575 275.076 66.6262C275.076 66.5462 274.876 66.5195 274.354 66.5195C273.793 66.5195 273.546 66.4839 273.194 66.315C272.633 66.057 272.624 65.8614 273.128 65.5412C273.337 65.4078 273.707 65.0609 273.964 64.7763C274.477 64.1715 275.266 62.7751 275.266 62.4549C275.266 62.2504 275.085 62.1703 274.943 62.3037Z" fill="#2D3F55"/>
<path d="M292.563 64.7586C292.43 64.8208 292.316 64.9365 292.297 65.0254C292.259 65.2033 292.563 65.2211 293.219 65.0788C293.694 64.9809 294.122 65.0788 294.445 65.3634C294.73 65.6035 294.711 65.6747 294.321 65.7369C293.694 65.8348 292.753 66.6085 292.335 67.3734C291.936 68.1116 292.42 67.9782 293.067 67.1778C293.447 66.7064 293.684 66.5018 294.103 66.3061C294.397 66.1638 294.682 66.066 294.73 66.1016C294.787 66.1283 294.749 66.4929 294.644 67.0443C294.407 68.245 294.521 68.5208 294.948 67.8181C295.148 67.489 295.177 67.3379 295.177 66.5552C295.177 65.4523 295.024 65.0966 294.426 64.8208C293.96 64.6163 292.943 64.5807 292.563 64.7586Z" fill="#2D3F55"/>
<path d="M276.834 68.3251C275.637 68.6186 274.297 68.9922 274.239 69.0456C274.068 69.1968 274.468 69.1434 275.846 68.8232C278.098 68.2985 278.117 68.2896 278.117 68.2006C278.117 68.0672 277.765 68.1028 276.834 68.3251Z" fill="#2D3F55"/>
<path d="M56.7713 38.877C56.2485 39.1349 55.8019 39.7575 55.7828 40.2466C55.7733 40.5312 55.8114 40.5935 55.9824 40.6113C56.144 40.638 56.2105 40.5668 56.3341 40.2022C56.4196 39.962 56.6097 39.6685 56.7522 39.5351C57.0184 39.295 57.6551 39.1171 58.1493 39.1438C58.3964 39.1616 58.4344 39.1349 58.4344 38.9392C58.4344 38.7258 58.4059 38.7169 57.8167 38.6902C57.313 38.6724 57.1134 38.708 56.7713 38.877Z" fill="#2D3F55"/>
<path d="M62.7207 40.0242C62.6351 40.131 62.5686 40.2822 62.5686 40.3622C62.5686 40.4423 62.6351 40.5935 62.7207 40.7002C62.9393 41.0026 63.5095 40.9403 63.7091 40.6024C63.8326 40.3889 63.8326 40.3355 63.7091 40.1132C63.5095 39.7841 62.9393 39.7218 62.7207 40.0242Z" fill="#2D3F55"/>
<path d="M61.0193 41.3139C60.8863 41.4295 60.9623 41.6341 61.3615 42.2122C61.9792 43.1016 62.7586 43.8487 63.4238 44.1778C63.823 44.3734 63.9941 44.5157 63.9751 44.6136C63.918 44.8804 63.0912 45.2806 62.4449 45.334C61.9412 45.3785 61.8557 45.414 61.8557 45.5652C61.8557 45.7253 61.9127 45.7431 62.3974 45.7342C62.7015 45.7253 63.0817 45.672 63.2528 45.6008C64.5548 45.1116 64.8399 44.3112 63.842 43.9198C63.2528 43.6797 62.3689 42.8703 61.7416 41.9809C61.2284 41.2694 61.1429 41.1894 61.0193 41.3139Z" fill="#2D3F55"/>
<path d="M57.9591 41.4473C57.5695 41.6519 57.5125 42.0344 57.8166 42.319C58.2062 42.6836 58.767 42.4346 58.767 41.9009C58.767 41.5007 58.3298 41.2517 57.9591 41.4473Z" fill="#2D3F55"/>
<path d="M428.279 42.1678C428.279 42.3723 428.326 42.4079 428.735 42.4613C428.982 42.4968 429.524 42.5324 429.942 42.5324C430.636 42.5413 430.702 42.5235 430.702 42.3723C430.702 42.15 430.408 42.0788 429.21 41.9988L428.279 41.9365V42.1678Z" fill="#2D3F55"/>
<path d="M151.097 52.0134C143.675 57.1453 137.592 61.3699 137.583 61.4144C137.573 61.45 138.913 62.1882 140.567 63.042C142.211 63.8958 143.627 64.634 143.694 64.6874C143.808 64.7585 143.808 64.9453 143.684 65.8703C143.542 66.9465 143.513 67.0354 142.259 69.9526C141.555 71.598 141.004 72.9766 141.033 73.0211C141.118 73.1456 141.327 72.941 141.403 72.6742C141.432 72.5497 141.479 72.4697 141.508 72.4874C141.527 72.5141 141.489 72.692 141.413 72.8966C141.318 73.1367 141.308 73.2879 141.365 73.3235C141.489 73.3946 141.498 73.3857 141.679 73.0033C141.765 72.8343 141.803 72.7898 141.765 72.9144C141.584 73.5636 141.812 73.6792 142.04 73.0478C142.154 72.7365 142.192 72.7009 142.145 72.9144C141.955 73.8482 142.192 73.9905 142.42 73.0744C142.591 72.3629 142.648 72.5141 142.496 73.279C142.439 73.5547 142.43 73.7771 142.487 73.8304C142.61 73.9461 142.686 73.7771 142.829 73.0211L142.962 72.3362L142.905 73.1723C142.857 73.8571 142.876 73.9994 142.981 73.9639C143.076 73.9372 143.143 73.6348 143.219 72.9499L143.323 71.9805L143.333 72.9766C143.342 73.5636 143.39 73.9816 143.447 73.9816C143.542 73.9816 143.608 73.7682 143.665 73.2701C143.684 73.0744 143.703 73.1545 143.713 73.4747C143.722 73.8304 143.77 73.9816 143.846 73.9639C143.912 73.9372 143.95 73.697 143.95 73.2612C143.95 72.9055 143.96 72.7454 143.979 72.9144C144.055 73.5636 144.122 73.8038 144.226 73.8038C144.302 73.8038 144.312 73.4925 144.274 72.7543L144.226 71.7137L144.359 72.5141C144.53 73.5636 144.568 73.7148 144.682 73.7148C144.739 73.7148 144.777 73.5814 144.787 73.4213C144.787 73.1456 144.796 73.1456 144.882 73.3502C144.939 73.4925 145.005 73.5369 145.062 73.4836C145.119 73.4302 144.91 72.2473 144.483 70.2461L143.808 67.0888L143.931 66.066C143.988 65.5056 144.074 65.0165 144.112 64.972C144.16 64.9275 147.809 66.7419 147.971 66.8931C147.99 66.902 148.085 67.489 148.199 68.1827C148.484 70.0327 149.121 72.185 149.672 73.1812L149.814 73.448L148.93 74.2662C147.914 75.209 147.4 75.8761 146.811 77.0501C146.203 78.2419 146.003 79.0512 145.946 80.4832C145.908 81.4081 145.927 81.8617 146.051 82.431C146.574 84.8412 148.275 86.7268 150.603 87.4739C151.325 87.7051 151.487 87.7229 152.856 87.7229C154.3 87.7229 154.348 87.714 155.298 87.4027C156.524 86.9936 157.722 86.3088 158.653 85.4549C159.347 84.8234 160.364 83.5872 160.364 83.3737C160.364 83.3204 160.107 83.098 159.784 82.8757C158.092 81.7283 156.553 79.6649 155.517 77.1924L155.165 76.3474L154.414 76.3386C153.834 76.3297 153.559 76.2852 153.207 76.1251C151.877 75.5114 151.059 73.9816 151.164 72.2829C151.221 71.2956 151.487 70.7353 152.162 70.1572C153.35 69.1433 155.041 69.2322 156.172 70.3796C156.591 70.8065 156.99 71.5091 157.094 71.9983C157.132 72.1673 157.208 72.2918 157.294 72.2918C157.37 72.2918 157.788 72.1495 158.235 71.9805C163.909 69.7837 167.558 65.9681 168.927 60.8274L169.022 60.436L169.754 60.4983C170.153 60.5339 170.732 60.5961 171.037 60.6495L171.588 60.7384L172.177 60.2937C172.7 59.8935 172.776 59.8579 172.909 59.9736C173.156 60.1781 173.954 61.6634 174.924 63.7179L175.817 65.5857L175.427 65.4612C174.962 65.3011 173.745 65.221 173.156 65.3011C172.833 65.3455 172.719 65.4078 172.719 65.5145C172.719 65.6479 172.842 65.6657 173.793 65.6657C174.677 65.6657 174.962 65.7013 175.475 65.8703C176.083 66.0749 176.102 66.1015 176.606 66.8397C176.891 67.2578 177.423 67.907 177.794 68.2806C178.164 68.6541 178.592 69.0988 178.735 69.2678L179.01 69.5791L178.953 68.4673C178.868 66.5907 178.45 64.6963 177.737 62.873C177.499 62.2504 177.471 62.117 177.575 62.0192C177.651 61.9569 179.733 60.5783 182.204 58.9685L186.699 56.0335L186.29 55.7667C184.58 54.6727 164.802 42.6747 164.707 42.6836C164.64 42.6836 158.52 46.8816 151.097 52.0134ZM142.658 72.3096C142.629 72.3807 142.601 72.354 142.601 72.2562C142.591 72.1584 142.62 72.105 142.648 72.1406C142.677 72.1673 142.686 72.2473 142.658 72.3096Z" fill="#2D3F55"/>
<path d="M433.192 43.6263C433.059 43.7508 433.145 44.0176 433.639 45.0404C434.038 45.8587 434.2 46.1077 434.352 46.1255C434.723 46.1789 434.685 45.8854 434.162 44.827C433.886 44.2577 433.62 43.733 433.573 43.6707C433.478 43.5551 433.288 43.5284 433.192 43.6263Z" fill="#2D3F55"/>
<path d="M427.062 44.24C426.635 44.5157 426.872 45.1917 427.404 45.1917C428.003 45.1917 428.298 44.6491 427.899 44.2756C427.671 44.0621 427.357 44.0443 427.062 44.24Z" fill="#2D3F55"/>
<path d="M428.555 46.6058C427.68 47.5486 427.138 47.9577 426.454 48.1889C425.57 48.4913 425.428 48.8916 425.988 49.4697C426.568 50.0656 428.184 50.5014 428.184 50.0567C428.184 49.9233 428.117 49.8788 427.946 49.8788C427.576 49.8788 426.758 49.5497 426.454 49.2829C426.064 48.936 426.112 48.7759 426.673 48.5536C427.69 48.1622 429.001 47.095 429.429 46.3034C429.657 45.8943 429.657 45.8765 429.429 45.8765C429.315 45.8765 428.973 46.1611 428.555 46.6058Z" fill="#2D3F55"/>
<path d="M43.1996 46.2322C42.3632 46.588 42.2112 47.5841 42.7814 48.9271C42.9905 49.4163 43.1046 49.5764 43.2661 49.5942C43.5227 49.6297 43.5227 49.5319 43.2281 48.856C43.1046 48.5536 42.9715 48.1444 42.9335 47.9488L42.8765 47.5841L43.2091 47.6553C43.4847 47.7086 43.5797 47.6908 43.7128 47.5574C43.8649 47.3973 43.8554 47.3884 43.6178 47.2995C43.4752 47.255 43.2566 47.2106 43.1331 47.2106C42.9335 47.2106 42.9145 47.1839 42.981 47.0149C43.1426 46.6058 43.5132 46.4546 44.3306 46.4546C45.0434 46.4635 45.0909 46.4457 45.0624 46.2767C45.0338 46.1166 44.9578 46.0988 44.3211 46.081C43.7793 46.0632 43.5132 46.0988 43.1996 46.2322Z" fill="#2D3F55"/>
<path d="M431.862 46.3924C431.501 46.7659 431.786 47.2996 432.337 47.2996C432.86 47.2996 433.145 46.7037 432.765 46.3835C432.527 46.1878 432.052 46.1967 431.862 46.3924Z" fill="#2D3F55"/>
<path d="M60.278 47.0594C59.4892 47.5575 59.7838 48.4735 60.9052 48.9538C61.7891 49.3452 62.7965 49.194 63.0436 48.6425C63.5093 47.5841 61.3899 46.3568 60.278 47.0594ZM61.8746 47.3974C62.7775 47.8065 63.0151 48.4558 62.3498 48.7493C62.0362 48.9005 61.9317 48.9005 61.523 48.8115C60.7057 48.6247 60.0879 48.0288 60.24 47.5664C60.373 47.1839 61.2094 47.095 61.8746 47.3974Z" fill="#2D3F55"/>
<path d="M430.37 51.542C430.189 51.5598 429.03 51.6932 427.794 51.8355C426.559 51.9867 425.523 52.1023 425.485 52.1023C425.456 52.1023 425.428 52.1824 425.428 52.2802C425.428 52.5292 425.77 52.5203 428.897 52.1824C432.441 51.8088 432.403 51.8177 432.441 51.6309C432.47 51.4975 432.384 51.4797 431.586 51.4975C431.101 51.4975 430.55 51.5242 430.37 51.542Z" fill="#2D3F55"/>
<path d="M445.148 52.458C445.034 52.627 445.205 52.7248 445.604 52.7248C446.175 52.7248 446.612 52.8672 446.925 53.1429C447.344 53.5164 447.277 53.6676 446.697 53.7299C445.728 53.8366 444.435 54.6371 444.435 55.1262C444.435 55.4108 444.683 55.3308 445.215 54.895C445.775 54.4147 446.355 54.1568 446.878 54.1212C447.211 54.1034 447.239 54.1212 447.22 54.3258C447.201 54.4503 447.011 54.8772 446.802 55.2863C446.412 56.0156 446.393 56.2736 446.735 56.149C446.954 56.069 447.553 54.975 447.676 54.4236C447.876 53.552 447.458 52.7337 446.688 52.4669C446.346 52.3424 445.224 52.3424 445.148 52.458Z" fill="#2D3F55"/>
<path d="M170.248 65.7191C169.402 65.8525 168.394 66.3772 167.615 67.0977C167.178 67.489 166.921 67.8003 166.921 67.9248C166.921 68.0226 166.969 68.1116 167.026 68.1116C167.083 68.1116 167.435 67.8181 167.815 67.4623C168.594 66.7241 169.63 66.1816 170.419 66.0926C170.989 66.0304 171.151 65.9503 171.075 65.7636C171.008 65.6035 170.999 65.6035 170.248 65.7191Z" fill="#2D3F55"/>
<path d="M57.5314 67.0443C57.5314 67.0887 57.2748 67.3822 56.9612 67.6935C56.2484 68.4139 55.2125 68.9565 54.7563 68.8675C54.3191 68.7786 53.3497 68.3517 52.7414 67.987C52.4468 67.8091 52.2092 67.6846 52.2092 67.7024C52.2092 67.7291 52.922 69.1166 53.7869 70.7975C55.7447 74.5775 58.843 80.6076 59.3847 81.666C59.7648 82.4042 59.7933 82.4487 59.8504 82.1997C59.8884 82.004 62.4449 68.9654 62.7301 67.489L62.7871 67.1777L62.1408 67.738C61.276 68.5029 60.9813 68.6274 60.4016 68.4851C59.7173 68.3161 58.881 67.8981 58.2157 67.4089C57.5979 66.9375 57.5314 66.902 57.5314 67.0443Z" fill="#2D3F55"/>
<path d="M174.62 67.4891C174.363 67.7292 174.382 68.0405 174.648 68.2718C174.867 68.4674 175.237 68.5208 175.437 68.3963C175.561 68.3162 175.76 67.9871 175.76 67.8448C175.76 67.667 175.294 67.3112 175.047 67.3112C174.914 67.3112 174.724 67.3913 174.62 67.4891Z" fill="#2D3F55"/>
<path d="M169.164 68.3961C168.946 68.6896 168.984 68.9653 169.259 69.1699C169.564 69.3922 169.754 69.4011 170.039 69.2144C170.286 69.0543 170.324 68.5562 170.096 68.3427C169.868 68.1293 169.335 68.1649 169.164 68.3961Z" fill="#2D3F55"/>
<path d="M172.624 68.7787C172.624 69.1167 173.023 69.9705 173.498 70.6642C173.935 71.2868 174.344 71.7137 174.905 72.1317L175.237 72.3719L174.981 72.5942C174.667 72.8611 173.831 73.0389 173.251 72.9589C172.804 72.8966 172.614 73.0034 172.814 73.2257C172.975 73.4036 174.173 73.4036 174.743 73.2168C174.981 73.1457 175.285 72.9856 175.418 72.87C175.845 72.4964 175.76 72.2829 174.819 71.4202C174.049 70.7176 173.926 70.5486 173.431 69.597C172.909 68.583 172.624 68.2895 172.624 68.7787Z" fill="#2D3F55"/>
<path d="M153.084 70.9487C152.409 71.34 152.133 71.927 152.219 72.8609C152.304 73.777 152.532 74.4263 152.761 74.4263C152.989 74.4263 152.998 74.2573 152.808 73.5635C152.732 73.2878 152.666 72.8787 152.666 72.6741C152.666 72.3451 152.694 72.2917 152.856 72.2917C153.378 72.2917 154.044 72.8076 154.614 73.6436C154.927 74.1061 155.232 74.2128 155.232 73.8659C155.232 73.3412 154.148 72.2472 153.35 71.9715C152.77 71.767 152.789 71.7936 153.046 71.5357C153.388 71.1977 153.892 71.0999 154.547 71.26C155.137 71.4023 155.232 71.3845 155.232 71.1444C155.232 70.7886 153.625 70.6374 153.084 70.9487Z" fill="#2D3F55"/>
<path d="M170.666 74.6487C170.581 74.8355 170.771 75.0222 171.483 75.4581C172.206 75.8939 172.852 76.1162 173.394 76.1162C173.707 76.1162 173.774 76.0895 173.745 75.965C173.726 75.8494 173.584 75.7871 173.289 75.7516C172.586 75.6537 171.635 75.1912 171.084 74.6754C170.875 74.4797 170.733 74.4708 170.666 74.6487Z" fill="#2D3F55"/>
<path d="M157.275 89.5106C154.671 89.8841 151.782 91.1471 148.912 93.1482C148.341 93.5485 147.457 94.1355 146.963 94.4379C140.824 98.2623 136.319 103.27 132.603 110.394C126.948 121.244 125.941 132.335 129.942 139.78C131.073 141.879 132.774 143.906 134.646 145.356C136.091 146.486 138.362 147.695 140.976 148.754C142.002 149.163 142.373 149.358 142.449 149.51C142.496 149.625 142.591 149.75 142.658 149.803C142.744 149.874 142.63 150.764 142.164 153.628C139.455 170.508 135.682 199.423 133.895 217.086C133.715 218.919 133.525 220.804 133.468 221.267C133.259 223.259 133.059 225.785 133.107 225.909C133.135 225.98 133.819 226.31 134.618 226.647C145.091 230.997 156.163 233.033 168.205 232.793C175.019 232.669 180.607 232.064 186.937 230.783C191.66 229.823 197.068 228.373 199.757 227.332L200.423 227.074L200.394 225.127C200.252 215.494 198.56 195.127 195.994 172.083C195.082 163.838 193.19 148.087 193.105 147.998C193.086 147.98 188.847 148.273 183.677 148.638C178.516 149.012 174.154 149.314 173.992 149.314H173.707L173.869 148.442C173.964 147.971 174.335 146.005 174.705 144.084C175.076 142.163 175.38 140.562 175.38 140.527C175.38 140.482 174.943 140.527 174.411 140.607C173.869 140.696 172.88 140.811 172.196 140.865C171.084 140.962 170.885 141.007 170.181 141.309L169.412 141.647L169.183 141.416C168.404 140.598 168.138 140.207 167.786 139.335C167.283 138.09 167.093 137.191 167.074 135.991C167.064 134.879 167.064 134.87 167.71 134.772C167.938 134.728 168.243 134.568 168.566 134.31C170.219 132.993 173.897 131.384 176.473 130.859C176.891 130.77 177.243 130.69 177.252 130.681C177.281 130.663 177.613 128.964 178.944 122.009C180.503 113.854 181.006 111.292 181.035 111.265C181.054 111.248 184.323 110.999 188.305 110.714C192.287 110.429 195.576 110.171 195.604 110.145C195.671 110.074 194.949 108.232 194.236 106.676C192.392 102.656 189.712 99.0183 186.576 96.2878C185.939 95.7364 184.969 94.8826 184.418 94.3934C182.755 92.9259 181.253 91.9564 179.286 91.0759C177.461 90.2666 175.152 89.6351 173.175 89.4127L172.624 89.3505V89.644C172.633 89.813 172.88 93.8509 173.185 98.6181C173.489 103.385 173.726 107.308 173.707 107.325C173.688 107.343 173.66 107.343 173.641 107.325C173.622 107.308 170.276 103.261 166.218 98.3246L158.824 89.3683L158.473 89.3772C158.282 89.3861 157.75 89.4394 157.275 89.5106ZM165.591 136.186C165.591 137.992 166.285 140.162 167.397 141.861C167.558 142.101 167.663 142.332 167.634 142.377C167.577 142.466 165.971 143.061 164.479 143.542C162.217 144.271 159.309 144.947 157.17 145.223L156.401 145.329L156.135 145.08L155.878 144.84L155.935 143.23C156.049 140.536 156.306 138.632 156.762 137.014C156.923 136.48 156.999 136.329 157.142 136.329C157.237 136.329 157.37 136.258 157.437 136.169C157.551 136.035 157.769 136.017 159.508 136.009C161.504 135.991 162.92 135.857 164.403 135.537C165.676 135.261 165.591 135.217 165.591 136.186Z" fill="#2D3F55"/>
<path d="M193.437 137.85C193.105 137.974 192.696 138.357 192.477 138.748C192.268 139.121 192.23 139.958 192.401 140.402C192.496 140.669 192.439 140.794 191.593 142.332C191.09 143.239 190.7 143.978 190.729 143.978C190.757 143.978 191.071 143.844 191.432 143.675L192.078 143.364L192.306 143.986C192.43 144.324 192.553 144.6 192.582 144.6C192.61 144.6 192.953 143.906 193.342 143.07L194.046 141.541L194.464 142.777C194.692 143.462 194.996 144.36 195.138 144.778L195.405 145.534L195.623 144.911C195.737 144.565 195.87 144.253 195.908 144.218C195.946 144.173 196.25 144.271 196.574 144.422C196.897 144.574 197.172 144.689 197.191 144.671C197.201 144.654 196.84 143.737 196.374 142.626L195.538 140.598L195.671 140.233C196.127 139.033 195.3 137.743 194.093 137.761C193.865 137.761 193.57 137.805 193.437 137.85Z" fill="#2D3F55"/>
<path d="M366.646 205.355C365.924 205.435 364.603 205.667 364.546 205.72C364.536 205.738 364.479 206.529 364.422 207.481C364.27 210.034 363.861 212.186 363.234 213.733C362.664 215.165 362.559 219.568 363.035 222.174C363.586 225.136 364.945 227.404 366.817 228.453C367.482 228.827 367.91 228.889 368.452 228.693C368.946 228.524 369.298 228.142 369.431 227.626C369.488 227.43 369.925 225.029 370.391 222.289C370.866 219.55 371.674 214.899 372.187 211.946L373.118 206.592L372.928 206.423C372.576 206.129 371.56 205.702 370.752 205.524C369.82 205.311 367.777 205.222 366.646 205.355Z" fill="#2D3F55"/>
<path d="M32.061 254.103C31.1581 254.21 30.0746 254.548 29.3904 254.939C28.1644 255.633 27.0904 257.074 26.7008 258.533C26.4537 259.466 26.3301 260.765 26.4442 261.174C26.6057 261.726 27.0429 262.215 27.6036 262.482L28.1073 262.713H33.4675C37.3071 262.713 38.9418 262.686 39.2079 262.606C39.7306 262.464 40.3769 261.903 40.5765 261.414C40.7095 261.094 40.7285 260.854 40.681 260.196C40.4624 257.172 38.7042 254.948 36.0146 254.308C34.7506 254.014 33.439 253.943 32.061 254.103Z" fill="#2D3F55"/>
<path d="M66.7694 254.593C66.0376 256.113 65.762 257.376 65.762 259.244C65.762 260.774 65.857 261.281 66.2657 262.135L66.5508 262.713H78.9154C89.0845 262.713 91.3275 262.695 91.5841 262.588C92.0022 262.428 92.4774 261.903 92.601 261.468C92.7245 261.05 92.62 260.605 92.2493 259.911C90.5196 256.692 85.9958 254.753 78.7918 254.148C77.7084 254.05 77.2902 254.05 76.3208 254.157C74.1159 254.397 68.8507 254.326 67.3111 254.032C67.083 253.997 67.045 254.041 66.7694 254.593Z" fill="#2D3F55"/>
<path d="M398.484 254.094C397.914 254.139 396.821 254.255 396.061 254.352C391.708 254.931 388.695 256.051 386.709 257.812C385.53 258.862 384.57 260.516 384.685 261.29C384.761 261.806 385.131 262.304 385.625 262.526L386.044 262.713H398.427H410.801L410.991 262.304C411.486 261.219 411.505 261.076 411.495 259.111C411.495 257.359 411.476 257.19 411.229 256.354C411.086 255.873 410.801 255.135 410.602 254.726C410.298 254.13 410.193 253.997 410.06 254.032C409.965 254.059 409.357 254.13 408.701 254.192C406.582 254.397 401.906 254.326 399.767 254.05C399.634 254.032 399.064 254.05 398.484 254.094Z" fill="#2D3F55"/>
<path d="M442.487 254.094C439.617 254.45 437.754 255.9 436.984 258.372C436.861 258.79 436.709 259.511 436.652 259.973C436.519 261.067 436.652 261.53 437.231 262.063C437.973 262.739 437.697 262.713 443.77 262.713C449.748 262.713 449.577 262.731 450.214 262.152C450.86 261.583 451.022 261.05 450.889 259.964C450.756 258.826 450.546 258.132 450.071 257.198C449.292 255.686 447.933 254.673 446.137 254.263C445.196 254.05 443.447 253.97 442.487 254.094Z" fill="#2D3F55"/>
<path d="M291.043 254.539C289.303 254.815 286.975 254.931 285.369 254.806C284.599 254.744 283.706 254.646 283.401 254.593C282.784 254.468 281.71 254.522 279.828 254.762C274.078 255.473 270.2 257.35 268.803 260.08C268.3 261.068 268.309 261.592 268.832 262.153C269.412 262.766 268.547 262.74 281.244 262.615C291.413 262.526 292.715 262.5 292.82 262.375C293.067 262.09 293.342 261.228 293.438 260.445C293.561 259.44 293.428 258.133 293.048 256.727C292.753 255.669 292.259 254.415 292.126 254.388C292.078 254.379 291.594 254.45 291.043 254.539Z" fill="#2D3F55"/>
<path d="M145.091 254.619C143.589 254.877 142.154 255.695 141.223 256.834C140.234 258.043 139.93 258.933 139.864 260.907L139.807 262.357H146.203H152.599L152.542 260.907C152.485 259.298 152.361 258.728 151.848 257.821C150.983 256.265 149.567 255.18 147.866 254.753C147.163 254.575 145.756 254.513 145.091 254.619Z" fill="#2D3F55"/>
<path d="M181.89 255.037C180.521 255.5 179.695 255.633 178.041 255.633C176.368 255.642 175.589 255.535 174.154 255.099C173.755 254.984 173.403 254.886 173.374 254.886C173.27 254.886 172.633 256.78 172.415 257.714C172.272 258.346 172.215 258.897 172.215 259.778C172.215 260.996 172.281 261.396 172.643 262.241L172.833 262.713L181.833 262.704C186.775 262.695 191.85 262.668 193.114 262.633L195.404 262.579L195.737 262.339C196.165 262.037 196.431 261.432 196.345 260.987C196.25 260.516 195.68 259.529 195.157 258.915C194.169 257.785 192.268 256.7 190.111 256.042C188.315 255.482 186.433 255.162 183.791 254.948C182.508 254.842 182.441 254.842 181.89 255.037Z" fill="#2D3F55"/>
</svg>
